<?xml version="1.0" encoding="UTF-8"?><svg id="a" xmlns="http://www.w3.org/2000/svg" viewBox="0 0 57.97 57.97"><defs><style>.b{fill:#ed7e81;}</style></defs><path class="b" d="M20.98,26.89c-2.31,0-4.19,1.88-4.19,4.19s1.88,4.19,4.19,4.19,4.19-1.88,4.19-4.19-1.88-4.19-4.19-4.19Z"/><path class="b" d="M52.09,12.77h-12.97c-.84-4.4-4.73-7.65-9.26-7.65h-1.75c-4.53,0-8.41,3.26-9.26,7.65H5.88c-1.54,0-2.79,1.25-2.79,2.79v31.34c0,1.54,1.25,2.79,2.79,2.79H52.09c1.54,0,2.79-1.25,2.79-2.79V15.56c0-1.54-1.25-2.79-2.79-2.79Zm-10.11,9.52c1.7,0,1.7,2.59,0,2.59h-9.62c-1.7,0-1.7-2.59,0-2.59h9.62ZM28.11,7.71h1.75c3.1,0,5.8,2.12,6.6,5.06h-14.95c.8-2.95,3.5-5.06,6.6-5.06Zm-7.12,30.15c-.99,0-1.93-.21-2.77-.59l-3.51,4.99c-.98,1.39-3.09-.1-2.11-1.49l3.51-4.99c-1.17-1.22-1.89-2.88-1.89-4.7,0-3.74,3.04-6.78,6.78-6.78s6.78,3.04,6.78,6.78-3.04,6.78-6.78,6.78Zm23.37,5.65h-12c-1.7,0-1.7-2.59,0-2.59h12c1.7,0,1.7,2.59,0,2.59Zm0-3.82h-12c-1.7,0-1.7-2.59,0-2.59h12c1.7,0,1.7,2.59,0,2.59Zm0-3.82h-12c-1.7,0-1.7-2.59,0-2.59h12c1.7,0,1.7,2.59,0,2.59Zm0-3.82h-12c-1.7,0-1.7-2.59,0-2.59h12c1.7,0,1.7,2.59,0,2.59Z"/></svg>