<?xml version="1.0" encoding="UTF-8"?><svg id="a" xmlns="http://www.w3.org/2000/svg" viewBox="0 0 57.97 57.97"><defs><style>.d{fill:#ed7e81;}</style></defs><g id="b"><g id="c"><path class="d" d="M28.98,15.96h15.33c.42,0,.77-.34,.77-.77s-.34-.77-.77-.77h-15.33c-.42,0-.77,.34-.77,.77s.34,.77,.77,.77Z"/><path class="d" d="M44.31,17.49h-11.5c-.42,0-.77,.34-.77,.77s.34,.77,.77,.77h11.5c.42,0,.77-.34,.77-.77s-.34-.77-.77-.77Z"/><path class="d" d="M49.68,15.19h-1.53v-3.83c0-.42-.34-.77-.77-.77h-4.6v-3.83c0-.42-.34-.77-.77-.77H9.82c-.42,0-.77,.34-.77,.77V15.19h-.25c-1.62,.07-2.89,1.44-2.82,3.07v30.6c-.06,1.65,1.21,3.05,2.87,3.13H49.23c1.62-.11,2.85-1.51,2.75-3.13V17.49c0-1.27-1.03-2.3-2.3-2.3ZM14.42,11.36v3.88c-1.39,.32-2.36,1.59-2.3,3.02v29.13h-1.53V7.52h30.66v3.07H15.19c-.42,0-.77,.34-.77,.77Zm17.63,36.02c-5.93,0-10.73-4.8-10.73-10.73s4.8-10.73,10.73-10.73,10.73,4.8,10.73,10.73-4.8,10.73-10.73,10.73Zm14.56-26.06h-15.82c-.16,0-.32-.06-.44-.18l-5.69-5.37c-.4-.38-.93-.59-1.49-.59h-7.23v-3.07h30.66v9.2Z"/><path class="d" d="M32.05,27.45c-5.08,0-9.19,4.13-9.18,9.21,0,2.47,1,4.83,2.76,6.55,.41-3.26,3.14-5.72,6.42-5.8,3.28,.08,6.02,2.54,6.43,5.8,3.63-3.56,3.69-9.38,.13-13.01-1.73-1.76-4.09-2.76-6.56-2.76Zm0,8.43c-1.9,0-3.45-1.54-3.45-3.45s1.54-3.45,3.45-3.45,3.45,1.54,3.45,3.45c0,1.9-1.55,3.44-3.45,3.45Z"/><circle class="d" cx="32.05" cy="32.43" r="1.92"/><path class="d" d="M32.05,38.95c-2.86,.11-5.09,2.51-4.98,5.37v.05c3.03,1.97,6.94,1.97,9.97,0,.13-2.86-2.08-5.28-4.93-5.42h-.05Z"/></g></g></svg>