<?xml version="1.0" encoding="UTF-8"?><svg id="a" xmlns="http://www.w3.org/2000/svg" viewBox="0 0 57.97 57.97"><defs><style>.c{fill:#ed7e81;}.d{fill:#251d28;}</style></defs><g><path class="d" d="M18.22,20.69s-.03,.03-.05,.04h0s.03-.03,.04-.04h0Z"/><path class="d" d="M10.85,9.25h0s0,.07,0,.09c0-.03,0-.06,0-.09h0Zm0,.09h0Z"/><path class="d" d="M17.21,8.38h0s0,.06,0,.08c0-.02,0-.05,0-.08h0Zm0,.08h0Z"/><path class="d" d="M19.3,15.91s-.02,.02-.04,.03h0s.02-.02,.03-.03h0Z"/><path class="d" d="M18.31,25.19s.03-.19-.2-.92c-.38-1.34-2.01-2.26-2.95-2.26-2.43-.05-2.56-1.63-2.57-1.81h.66s.64,0,.38-.57h0l-.83-1.81c.84-.15,1.61-.53,2.22-1.08,.02-.01,.03-.02,.04-.04,.34-.39,.66-.79,.94-1.18,0,0,0-.01,0-.02,1.44-2.07,1.93-4.15,2.1-5.27v-.03c.02-.11,.03-.2,.04-.29,0-.1,.02-.18,.02-.25,.02-.18,.02-.27,.02-.27,0-.07,0-.14,0-.22,0-3.42-2.77-6.2-6.2-6.2s-6.2,2.77-6.2,6.2c0,.07,0,.14,0,.22,0,.03,0,.07,0,.1,.01,.22,.03,.42,.06,.63,0,.02,0,.03,0,.04,.35,2.7,1.56,4.68,2.31,5.68,.04,.05,.08,.1,.11,.15,.1,.14,.2,.25,.28,.34,.08,.09,.14,.16,.18,.2,.05,.05,.07,.07,.07,.07h0c.63,.62,1.45,1.05,2.36,1.21l-.71,1.63c-.31,.71,.37,.76,.37,.76h.73c.43,2.72,2.41,2.75,3.31,2.78,2.27,.26,2.45,2.14,2.45,2.42,.06,.21,.17,.43,.62,.36,.44-.06,.36-.58,.36-.58Zm-7.32-8.54c-.65-.17-1.23-.51-1.7-.96h0s-.02-.02-.06-.06c-.04-.04-.09-.09-.16-.17-.07-.08-.15-.18-.24-.29-.03-.04-.06-.08-.09-.12-.64-.86-1.66-2.54-1.97-4.84,0,0,0-.02,0-.03-.02-.17-.04-.35-.05-.53,0-.02,0-.06,0-.08,0-.06,0-.12,0-.18,0-2.91,2.36-5.28,5.28-5.28s5.28,2.36,5.28,5.28c0,.06,0,.12,0,.18,0,0,0,.08-.01,.23,0,.06-.01,.13-.02,.21-.01,.07-.02,.15-.04,.25v.02c-.15,.95-.56,2.73-1.79,4.49,0,0,0,0,0,.01-.24,.34-.51,.68-.8,1.01-.01,.01-.02,.02-.04,.03-.42,.37-.92,.66-1.48,.82-.98,.45-2.1,.03-2.1,.03Z"/><path class="d" d="M20.25,5.57c-.63,0-1.22,.13-1.77,.35-.26,.14-.17,.47-.17,.47l.04,.1h0c.03,.07,.16,.28,.63,.12,.02,0,.03,0,.05-.01,.38-.12,.78-.19,1.2-.19,2.24,0,4.04,1.81,4.04,4.04,0,.05,0,.09,0,.14,0,0,0,.06-.01,.18,0,.05-.01,.1-.01,.16-.01,.05-.01,.12-.03,.19v.02c-.11,.73-.43,2.09-1.37,3.44,0,0,0,0,0,.01-.18,.26-.39,.52-.61,.77-.01,.01-.02,.02-.03,.03-.32,.29-.71,.5-1.13,.63-.75,.34-1.61,.02-1.61,.02-.5-.13-.94-.39-1.3-.74h0s-.01-.01-.05-.05c-.03-.03-.07-.07-.12-.13-.04-.05-.09-.11-.15-.18h0c-.31-.37-.58,0-.58,0l-.04,.08s-.09,.17,.04,.34c.02,.02,.04,.05,.05,.07l.08,.11c.08,.11,.15,.19,.21,.26,.06,.07,.11,.12,.14,.16l.05,.06h0c.48,.47,1.11,.81,1.81,.93l-.54,1.24c-.19,.44,.1,.54,.23,.57h1.97c.13-.02,.36-.11,.21-.43h0l-.63-1.39c.64-.11,1.23-.41,1.7-.83,.01,0,.02-.02,.03-.03,.26-.3,.51-.6,.72-.9,0,0,0,0,0-.01,1.1-1.59,1.48-3.18,1.61-4.04v-.02c.02-.08,.02-.16,.03-.22,0-.08,.01-.14,.02-.19,.01-.14,.01-.21,.01-.21,0-.05,0-.11,0-.16,0-2.62-2.12-4.75-4.75-4.75Z"/></g><g id="b"><g><path class="c" d="M12.65,47.42h-1.05v2.76c0,2.16,1.75,3.91,3.91,3.91h31.29c2.15,0,3.9-1.75,3.9-3.91v-2.76H12.65Zm16.86,2.4h1.64c.29,0,.52,.23,.52,.52s-.23,.52-.52,.52h-1.64c-.29,0-.52-.23-.52-.52s.23-.52,.52-.52Zm-11.9,0h9.73c.29,0,.52,.23,.52,.52s-.23,.52-.52,.52h-9.73c-.29,0-.52-.23-.52-.52s.23-.52,.52-.52Z"/><path class="c" d="M12.65,30.03h-1.05v16.33H50.7V30.03H12.65Zm14.69,14.63h-1.58v-10.07c-.38,.36-.88,.73-1.5,1.09s-1.17,.64-1.66,.82v-1.53c.88-.42,1.66-.92,2.32-1.51s1.13-1.16,1.4-1.72h1.02v12.93h0Zm12.35,0h-8.51c-.01-.38,.05-.75,.18-1.1,.22-.58,.56-1.15,1.04-1.71s1.17-1.21,2.07-1.95c1.4-1.15,2.34-2.06,2.84-2.73s.74-1.3,.74-1.9c0-.63-.22-1.15-.67-1.58s-1.03-.65-1.75-.65c-.76,0-1.37,.23-1.83,.68s-.69,1.09-.69,1.9l-1.62-.17c.11-1.21,.53-2.14,1.26-2.77s1.7-.95,2.92-.95,2.21,.34,2.93,1.03,1.08,1.53,1.08,2.55c0,.52-.11,1.02-.32,1.52s-.56,1.02-1.05,1.57-1.3,1.31-2.44,2.27c-.95,.8-1.56,1.34-1.83,1.62s-.49,.57-.67,.86h6.31v1.52Z"/><path class="c" d="M46.8,21.67H15.51c-2.16,0-3.91,1.75-3.91,3.91v3.4H50.7v-3.4c0-2.16-1.75-3.91-3.9-3.91Zm-27.34,5.52c-.8,0-1.46-.65-1.46-1.46s.65-1.46,1.46-1.46,1.46,.65,1.46,1.46c0,.8-.65,1.46-1.46,1.46Zm23.73,0c-.8,0-1.46-.65-1.46-1.46s.65-1.46,1.46-1.46,1.46,.65,1.46,1.46c0,.8-.65,1.46-1.46,1.46Z"/></g></g></svg>