<?xml version="1.0" encoding="UTF-8"?><svg id="a" xmlns="http://www.w3.org/2000/svg" viewBox="0 0 57.97 57.97"><defs><style>.b{fill:#ed7e81;}</style></defs><path class="b" d="M45.06,29.48v17.68c0,1.06-.71,1.77-1.77,1.77H15c-1.06,0-1.77-.71-1.77-1.77V29.48h14.15v15.91h3.54v-15.91h14.15Zm-17.68-12.38H11.46c-1.06,0-1.77,.71-1.77,1.77v5.3c0,1.06,.71,1.77,1.77,1.77h15.91v-8.84Zm19.45,0h-15.91v8.84h15.91c1.06,0,1.77-.71,1.77-1.77v-5.3c0-1.06-.71-1.77-1.77-1.77Zm-5.13-1.95l.18-.71c.71-1.77,.53-3.89-.53-5.48-1.06-1.59-3.01-2.48-4.95-2.48-2.48,0-4.6,1.41-5.48,3.71l-3.54,8.66h8.84c2.3,0,4.6-1.41,5.48-3.71Zm-7.43-3.71c.35-.88,1.24-1.41,2.12-1.41,.71,0,1.41,.35,1.95,1.06,.35,.71,.53,1.41,.18,2.12l-.18,.71c-.35,.88-1.24,1.41-2.12,1.41h-3.54l1.59-3.89Zm-6.9-1.24c-.88-2.3-3.18-3.71-5.48-3.71-1.95,0-3.89,.88-4.95,2.65-1.06,1.59-1.24,3.54-.53,5.48l.18,.71c.88,2.12,3.18,3.54,5.48,3.54h8.66l-3.36-8.66Zm-3.36,1.24l1.59,3.89h-3.54c-.88,0-1.77-.53-2.12-1.41l-.35-.71c-.18-.71-.18-1.59,.35-2.12,.35-.71,1.06-1.06,1.95-1.06s1.77,.53,2.12,1.41Z"/></svg>