<?xml version="1.0" encoding="UTF-8"?><svg id="a" xmlns="http://www.w3.org/2000/svg" viewBox="0 0 57.97 57.97"><defs><style>.b{fill:#f3ac92;}.c{fill:#ed7e81;}.d{fill:#fff;}.e{fill:#251d28;}.f{fill:#a294b0;}</style></defs><g><g><polyline class="f" points="10.9 35 6.86 35 6.86 12.89 44.32 12.89 44.32 16.94"/><circle class="b" cx="43.79" cy="40.33" r="9.11"/><path class="c" d="M43.79,31.22c1.86,0,3.59,.56,5.03,1.52v-15.81H10.9v23.33h23.78c.04-4.99,4.09-9.04,9.11-9.04Z"/><path class="d" d="M43.79,31.22c.48,0,.96,.05,1.42,.12v-8.09c-1.5,0-2.71-1.21-2.71-2.71H17.22c0,1.5-1.21,2.71-2.7,2.71v10.68c1.49,0,2.7,1.21,2.7,2.71h18.25c1.41-3.19,4.6-5.42,8.33-5.42Z"/><g><path class="e" d="M49.57,32.36v-15.43c0-.2-.08-.39-.22-.53-.14-.14-.34-.22-.53-.22h-3.75v-3.29c0-.41-.34-.75-.75-.75H6.86c-.41,0-.75,.34-.75,.75v22.11c0,.41,.34,.75,.75,.75h3.29v4.51c0,.2,.08,.39,.22,.53s.34,.22,.53,.22h23.06c.35,5.11,4.61,9.18,9.82,9.18s9.86-4.42,9.86-9.86c.01-3.27-1.6-6.18-4.06-7.97ZM11.65,17.68h7.94c.41,0,.75-.34,.75-.75s-.34-.75-.75-.75H10.9c-.2,0-.39,.08-.53,.22s-.22,.33-.22,.53v17.32h-2.54V13.64H43.57v2.54H23.59c-.41,0-.75,.34-.75,.75s.34,.75,.75,.75h24.48v13.78c-.67-.32-1.37-.58-2.11-.74v-7.47c0-.41-.34-.75-.75-.75-1.08,0-1.96-.88-1.96-1.96,0-.41-.34-.75-.75-.75H17.22c-.41,0-.75,.34-.75,.75,0,1.08-.88,1.96-1.95,1.96-.41,0-.75,.34-.75,.75v10.68c0,.41,.34,.75,.75,.75,1.08,0,1.95,.88,1.95,1.96,0,.41,.34,.75,.75,.75h17.16c-.21,.68-.34,1.38-.4,2.11H11.65V17.68Zm23.34,18.22H17.89c-.29-1.31-1.32-2.34-2.62-2.63v-9.35c1.3-.29,2.33-1.32,2.62-2.63h23.94c.29,1.31,1.32,2.34,2.63,2.63v6.59c-.22-.02-.44-.03-.67-.03-3.84,0-7.18,2.21-8.8,5.42Zm8.8,12.79c-4.6,0-8.36-3.75-8.36-8.36s3.75-8.36,8.36-8.36,8.36,3.75,8.36,8.36c0,4.6-3.75,8.36-8.36,8.36Z"/><circle class="e" cx="21.59" cy="16.93" r=".75"/></g></g><path class="e" d="M30.01,34.39c-2.57,0-4.67-2.74-4.67-6.11s2.09-6.11,4.67-6.11,4.67,2.74,4.67,6.11-2.09,6.11-4.67,6.11Zm0-11.22c-2.02,0-3.67,2.29-3.67,5.11s1.65,5.11,3.67,5.11,3.67-2.29,3.67-5.11-1.65-5.11-3.67-5.11Z"/></g><g><path class="d" d="M43.37,40.31c0-.41-.34-.75-.75-.75s-.75,.34-.75,.75,.34,.75,.75,.75,.75-.34,.75-.75Z"/><path class="d" d="M45.62,37.43h-3.45c-.29,0-.53,.24-.53,.53s.24,.53,.53,.53h3.45c.18,0,.33,.15,.33,.33v3.01c0,.18-.15,.33-.33,.33h-3.46c-.29,0-.53,.24-.53,.53,0,.29,.24,.53,.53,.53h3.46c.77,0,1.4-.63,1.4-1.4v-3.01c0-.77-.63-1.4-1.4-1.4Z"/></g></svg>