<?xml version="1.0" encoding="UTF-8"?><svg id="a" xmlns="http://www.w3.org/2000/svg" viewBox="0 0 57.97 57.97"><defs><style>.b{fill:#010101;}.c{fill:#ed7e81;}.d{fill:#fff;}</style></defs><path class="c" d="M50.57,6.85c-.54-.47-1.25-.69-1.95-.62-5.1,.57-10.08,1.96-14.73,4.13-2.65,1.47-5.09,3.3-7.24,5.43-.38,.39-.9,.62-1.45,.65-2.96,.28-5.83,1.13-8.47,2.5-1.95,.92-3.75,2.14-5.32,3.62-.55,.66-.72,1.57-.43,2.39,.29,.86,1.05,1.49,1.95,1.59l3.87,.54c-.16,.75,.09,1.54,.65,2.06l10.61,10.61c.53,.56,1.31,.8,2.06,.65l.54,3.84c.12,.91,.76,1.67,1.63,1.95,.25,.05,.51,.05,.76,0,.64,0,1.26-.25,1.7-.72,1.7-1.72,3.09-3.72,4.13-5.9,1.18-2.43,1.92-5.05,2.17-7.75,.02-.56,.26-1.09,.65-1.48,2.34-2.41,4.33-5.13,5.94-8.07,2.26-4.31,3.5-9.07,3.62-13.94-.05-.56-.29-1.08-.69-1.48Z"/><path class="b" d="M45.29,21.33c-1.48,2.62-3.28,5.05-5.36,7.24-.86,.84-1.39,1.95-1.48,3.15-.29,2.42-1.01,4.76-2.14,6.91-.84,1.72-1.91,3.32-3.19,4.74l-.43-4.85c-.07-.6-.48-1.11-1.05-1.3-.15-.04-.32-.04-.47,0-.41,0-.82,.12-1.16,.36h-.18l-10.21-9.96h0c.36-.48,.48-1.09,.33-1.67-.22-.49-.64-.86-1.16-1.01h0l-4.89-.72c1.3-1.15,2.75-2.13,4.31-2.9,2.25-1.22,4.7-2.01,7.24-2.32,1.2-.02,2.35-.49,3.22-1.3,1.95-1.99,4.16-3.72,6.55-5.14,4.24-1.92,8.76-3.14,13.39-3.62-.15,4.33-1.29,8.56-3.33,12.38Z"/><path class="c" d="M15.39,35.02c-2.63,.62-4.82,2.45-5.9,4.92-1.03,2.43-1.9,4.92-2.61,7.46-.38,1.26,.34,2.6,1.6,2.98,.23,.07,.47,.1,.72,.1,.22,.04,.44,.04,.65,0h0c2.99-.78,5.9-1.83,8.69-3.15,2.08-1.06,3.52-3.05,3.87-5.36,.25-1.94-.45-3.88-1.88-5.21-1.32-1.4-3.24-2.05-5.14-1.74Z"/><path class="d" d="M17.18,44.91c-2.44,1.17-4.98,2.11-7.6,2.79,.61-2.23,1.37-4.42,2.28-6.55,.72-1.67,2.16-2.92,3.91-3.4h.54c.86,.02,1.67,.38,2.24,1.01,.79,.76,1.19,1.84,1.09,2.93-.3,1.39-1.2,2.57-2.46,3.22Z"/></svg>