<?xml version="1.0" encoding="UTF-8"?><svg id="a" xmlns="http://www.w3.org/2000/svg" viewBox="0 0 57.97 57.97"><defs><style>.b{fill:#ed7e81;}.c{fill:#ebeded;}.d{fill:#ebeeef;}.e{fill:#fff;}.f,.g,.h{fill:#ced7de;}.i{fill:#251d28;}.j{fill:#242423;}.k{fill:#343434;}.g,.l{opacity:.15;}.g,.l,.h,.m{isolation:isolate;}.l,.m{fill:#4d537c;}.h{opacity:.35;}.m{opacity:.24;}</style></defs><path class="f" d="M40.92,41.52l1.72-.14s-1.38-.08-1.66-1.36h0l-1.61-7.39h-6.07l-1.66,7.32h0c-.52,1.28-1.64,1.43-1.64,1.43l1.74,.15h9.17Z"/><path class="c" d="M44.2,41.65c0,.22-.18,.4-.4,.4h-14.89c-.22,0-.4-.18-.4-.4v-.25c0-.22,.18-.4,.4-.4h14.89c.22,0,.4,.18,.4,.4v.25Z"/><path class="c" d="M17.52,33.68v1.05c0,1.16,.94,2.09,2.09,2.09H53.09c1.16,0,2.09-.94,2.09-2.09v-1.05H17.52Z"/><path class="i" d="M55.18,33.68V11.71c0-1.16-.94-2.09-2.09-2.09H19.62c-1.16,0-2.09,.94-2.09,2.09v21.97H55.18Z"/><path class="e" d="M53.09,31.06c0,.29-.23,.52-.52,.52H20.14c-.29,0-.52-.23-.52-.52V12.23c0-.29,.23-.52,.52-.52H52.57c.29,0,.52,.23,.52,.52V31.06Z"/><circle class="e" cx="36.35" cy="10.66" r=".33"/><circle class="k" cx="36.35" cy="35.25" r=".52"/><rect class="b" x="21.19" y="13.28" width="30.34" height="4.18"/><rect class="b" x="21.19" y="19.03" width="9.41" height="10.98"/><rect class="b" x="31.65" y="19.03" width="9.41" height="10.98"/><rect class="b" x="42.11" y="19.03" width="9.41" height="10.98"/><polygon class="m" points="25.89 26.66 31.03 31.59 25.89 31.59 25.89 26.66"/><polygon class="j" points="33.1 33.68 25.81 33.68 25.37 31.59 31.01 31.59 33.1 33.68"/><polygon class="h" points="36.31 36.82 25.89 36.82 25.89 33.68 33.1 33.68 36.31 36.82"/><path class="d" d="M26.42,46.23c0,.58-.47,1.05-1.05,1.05H12.82c-.58,0-1.05-.47-1.05-1.05V27.4c0-.58,.47-1.05,1.05-1.05h12.55c.58,0,1.05,.47,1.05,1.05v18.83Z"/><path class="e" d="M25.37,44.66c0,.29-.23,.52-.52,.52H13.34c-.29,0-.52-.23-.52-.52V27.92c0-.29,.23-.52,.52-.52h11.51c.29,0,.52,.23,.52,.52v16.74Z"/><path class="k" d="M19.62,46.23c0,.29-.23,.52-.52,.52h0c-.29,0-.52-.23-.52-.52h0c0-.29,.23-.52,.52-.52h0c.29,0,.52,.23,.52,.52h0Z"/><rect class="b" x="13.86" y="28.45" width="10.46" height="2.09"/><rect class="b" x="13.86" y="31.59" width="4.71" height="5.75"/><rect class="b" x="19.62" y="31.59" width="4.71" height="5.75"/><rect class="b" x="13.86" y="38.39" width="4.71" height="5.75"/><rect class="b" x="19.62" y="38.39" width="4.71" height="5.75"/><g><polygon class="l" points="13.84 40.86 17.07 43.96 13.84 43.96 13.84 40.86"/><polygon class="g" points="18.38 45.28 13.79 45.28 13.51 43.96 17.06 43.96 18.38 45.28"/><polygon class="g" points="20.4 47.26 13.84 47.26 13.84 45.28 18.38 45.28 20.4 47.26"/><g><path class="d" d="M14.65,46.21c0,.58-.47,1.05-1.05,1.05H3.15c-.58,0-1.05-.47-1.05-1.05v-5.23c0-.58,.47-1.05,1.05-1.05H13.61c.58,0,1.05,.47,1.05,1.05v5.23Z"/><path class="e" d="M14.13,46.21c0,.29-.23,.52-.52,.52H4.19c-.29,0-.52-.23-.52-.52v-5.23c0-.29,.23-.52,.52-.52H13.61c.29,0,.52,.23,.52,.52v5.23Z"/><circle class="k" cx="2.88" cy="43.6" r=".26"/></g><rect class="b" x="4.19" y="40.98" width="9.41" height="1.05"/><rect class="b" x="4.19" y="42.55" width="9.41" height="3.66"/></g></svg>